<svg width="103" height="30" viewBox="0 0 103 30" fill="none" xmlns="http://www.w3.org/2000/svg">
<path d="M41.992 6.2H45.88V23H41.992V6.2ZM62.203 14.264C63.163 14.568 63.915 15.08 64.459 15.8C65.003 16.504 65.275 17.376 65.275 18.416C65.275 19.888 64.699 21.024 63.547 21.824C62.411 22.608 60.747 23 58.555 23H49.867V6.2H58.075C60.123 6.2 61.691 6.592 62.779 7.376C63.883 8.16 64.435 9.224 64.435 10.568C64.435 11.384 64.235 12.112 63.835 12.752C63.451 13.392 62.907 13.896 62.203 14.264ZM53.731 9.128V13.088H57.595C58.555 13.088 59.283 12.92 59.779 12.584C60.275 12.248 60.523 11.752 60.523 11.096C60.523 10.44 60.275 9.952 59.779 9.632C59.283 9.296 58.555 9.128 57.595 9.128H53.731ZM58.267 20.072C59.291 20.072 60.059 19.904 60.571 19.568C61.099 19.232 61.363 18.712 61.363 18.008C61.363 16.616 60.331 15.92 58.267 15.92H53.731V20.072H58.267ZM76.3546 23.288C74.6106 23.288 73.0346 22.912 71.6266 22.16C70.2346 21.408 69.1386 20.376 68.3386 19.064C67.5546 17.736 67.1626 16.248 67.1626 14.6C67.1626 12.952 67.5546 11.472 68.3386 10.16C69.1386 8.832 70.2346 7.792 71.6266 7.04C73.0346 6.288 74.6106 5.912 76.3546 5.912C78.0986 5.912 79.6666 6.288 81.0586 7.04C82.4506 7.792 83.5466 8.832 84.3466 10.16C85.1466 11.472 85.5466 12.952 85.5466 14.6C85.5466 16.248 85.1466 17.736 84.3466 19.064C83.5466 20.376 82.4506 21.408 81.0586 22.16C79.6666 22.912 78.0986 23.288 76.3546 23.288ZM76.3546 19.976C77.3466 19.976 78.2426 19.752 79.0426 19.304C79.8426 18.84 80.4666 18.2 80.9146 17.384C81.3786 16.568 81.6106 15.64 81.6106 14.6C81.6106 13.56 81.3786 12.632 80.9146 11.816C80.4666 11 79.8426 10.368 79.0426 9.92C78.2426 9.456 77.3466 9.224 76.3546 9.224C75.3626 9.224 74.4666 9.456 73.6666 9.92C72.8666 10.368 72.2346 11 71.7706 11.816C71.3226 12.632 71.0986 13.56 71.0986 14.6C71.0986 15.64 71.3226 16.568 71.7706 17.384C72.2346 18.2 72.8666 18.84 73.6666 19.304C74.4666 19.752 75.3626 19.976 76.3546 19.976ZM98.4432 23L94.3872 17.168L90.4032 23H85.9392L92.1552 14.456L86.2512 6.2H90.6672L94.5312 11.648L98.3232 6.2H102.523L96.6672 14.312L102.931 23H98.4432Z" fill="white"/>
<path fill-rule="evenodd" clip-rule="evenodd" d="M18 10.5C17.1716 10.5 16.5 9.82843 16.5 9C16.5 8.17157 17.1716 7.5 18 7.5H25.5C26.3284 7.5 27 8.17157 27 9V16.5C27 17.3284 26.3284 18 25.5 18C24.6716 18 24 17.3284 24 16.5V12.6213L17.5607 19.0607C16.9749 19.6464 16.0251 19.6464 15.4393 19.0607L12 15.6213L5.56066 22.0607C4.97487 22.6464 4.02513 22.6464 3.43934 22.0607C2.85355 21.4749 2.85355 20.5251 3.43934 19.9393L10.9393 12.4393C11.5251 11.8536 12.4749 11.8536 13.0607 12.4393L16.5 15.8787L21.8787 10.5H18Z" fill="#E08B0A"/>
</svg>
